Coordinates
datacolumns 6
datarows 166
range 0 1.65
inDegrees=yes
Units are S.I. units (second, meters, Newtons, ...)
If the header above contains a line with 'inDegrees', this indicates whether rotational values are in degrees (yes) or radians (no).
endheader
time	foot_tx	hip_flexion_r	knee_angle_r	ankle_angle_r	lumbar
0	0.17596554	55.56895074	-73.73146952	6.32424131	-23.18545709
0.01	0.17593721	55.64561012	-73.72804413	6.33018573	-23.26699087
0.02	0.17589365	55.68564061	-73.72516883	6.34242571	-23.40150169
0.03	0.17586045	55.7549421	-73.72129917	6.35210269	-23.51913489
0.04	0.17583441	55.85489094	-73.71778014	6.35995122	-23.61885159
0.05	0.17579404	55.92750356	-73.7115803	6.37043744	-23.76843372
0.06	0.17576307	56.04877605	-73.70554369	6.37661118	-23.88412085
0.07	0.17572519	56.16165622	-73.69681855	6.38300352	-24.03123458
0.08	0.17569344	56.30632191	-73.68746676	6.38651479	-24.16400591
0.09	0.17565263	56.46156296	-73.67610062	6.38968221	-24.30750241
0.1	0.17560622	56.62626618	-73.66316262	6.39326612	-24.46088132
0.11	0.1755538	56.79999842	-73.64881684	6.39782233	-24.6241247
0.12	0.17549462	56.98266003	-73.63328639	6.40369723	-24.79734664
0.13	0.17542832	57.17446515	-73.61674678	6.41102501	-24.98060313
0.14	0.17535496	57.37581391	-73.59929935	6.41982626	-25.17375788
0.15	0.17527512	57.58721645	-73.58105766	6.43012371	-25.37646673
0.16	0.17518988	57.80928982	-73.56220127	6.4419804	-25.5882146
0.17	0.17510088	58.04274139	-73.54290179	6.45544087	-25.80843633
0.18	0.17501027	58.28828591	-73.52322621	6.47046991	-26.03667285
0.19	0.17492039	58.5465278	-73.50309903	6.48697338	-26.27264512
0.2	0.17483346	58.81783834	-73.48232365	6.50491074	-26.51612659
0.21	0.17475173	59.10229599	-73.46085091	6.52434619	-26.76708263
0.22	0.17467488	59.39975283	-73.43834535	6.54576474	-27.02512248
0.23	0.1746025	59.70998696	-73.41485195	6.56949453	-27.2900721
0.24	0.17452905	60.03382362	-73.38973132	6.59570622	-27.56081321
0.25	0.17445443	60.40634905	-73.36808454	6.62452001	-27.79663014
0.26	0.17437489	60.74469732	-73.34141376	6.65903398	-28.0904287
0.27	0.17428686	61.13477444	-73.31692244	6.69576478	-28.34672091
0.28	0.17418935	61.5357201	-73.29198971	6.73672433	-28.61175283
0.29	0.17408987	61.97157133	-73.26764456	6.77968866	-28.85947052
0.3	0.17398672	62.4497821	-73.24417429	6.82420156	-29.08166601
0.31	0.17388152	62.96668912	-73.22099088	6.8710636	-29.27984272
0.32	0.17377768	63.50827939	-73.19718884	6.922032	-29.46467081
0.33	0.17367512	64.06402336	-73.17128053	6.97882189	-29.64332693
0.34	0.17357008	64.62380252	-73.14313954	7.04369195	-29.82301142
0.35	0.17346648	65.18779868	-73.11124498	7.11646195	-30.00091631
0.36	0.17335803	65.75298058	-73.07643661	7.19841276	-30.1786033
0.37	0.17325527	66.32686699	-73.03544646	7.28666239	-30.34689149
0.38	0.17315575	66.91307562	-72.98796794	7.3810815	-30.50068952
0.39	0.17306217	67.51361709	-72.93230814	7.48081511	-30.63641766
0.4	0.17297917	68.12729492	-72.8675812	7.58567077	-30.75340595
0.41	0.17291063	68.75457498	-72.79283001	7.69552466	-30.84898142
0.42	0.17285941	69.3933583	-72.70746657	7.81086545	-30.92274186
0.43	0.17283294	70.04679834	-72.60947353	7.93020191	-30.96916497
0.44	0.17283186	70.71767533	-72.49770909	8.05327258	-30.98239612
0.45	0.17286889	71.40871738	-72.36904651	8.17753445	-30.95641819
0.46	0.17293829	72.12259252	-72.22410555	8.30416406	-30.88467497
0.47	0.1730441	72.86141124	-72.06111287	8.43207091	-30.76135264
0.48	0.17318405	73.62097451	-71.87842823	8.56121751	-30.58840704
0.49	0.17335332	74.39577382	-71.67500151	8.69194449	-30.36907208
0.5	0.17353714	75.17225383	-71.45351379	8.82738471	-30.11706434
0.51	0.17373355	75.94328804	-71.21275211	8.9670895	-29.83861101
0.52	0.17393786	76.69676351	-70.95570789	9.11316973	-29.54563888
0.53	0.17414457	77.42011244	-70.68611741	9.26783429	-29.25055816
0.54	0.17435846	78.10346677	-70.40741004	9.43218418	-28.96200756
0.55	0.17457827	78.73998608	-70.12467841	9.60824492	-28.68366779
0.56	0.1748108	79.31737932	-69.84198597	9.79720303	-28.42584826
0.57	0.17505298	79.83097791	-69.56375644	10.00022735	-28.18863987
0.58	0.1753038	80.27675698	-69.2938339	10.21775737	-27.97211521
0.59	0.17555968	80.64870965	-69.03476492	10.44982067	-27.77891671
0.6	0.17581617	80.94295242	-68.78761387	10.6953887	-27.61076032
0.61	0.17606783	81.15989399	-68.55169682	10.95246587	-27.46442881
0.62	0.17630981	81.29875208	-68.32533018	11.2189625	-27.33887792
0.63	0.17654001	81.36122862	-68.10486452	11.49158269	-27.23191027
0.64	0.17676233	81.35439089	-67.88592805	11.76630159	-27.13568563
0.65	0.17697012	81.2774581	-67.6632919	12.04038628	-27.05133353
0.66	0.1771848	81.15868477	-67.42687338	12.30432585	-26.94857744
0.67	0.1773678	80.94869783	-67.1772242	12.56550879	-26.8843302
0.68	0.17755215	80.70809269	-66.90251641	12.81050143	-26.79217148
0.69	0.177726	80.4251297	-66.599267	13.03973227	-26.68722432
0.7	0.17788798	80.10467735	-66.26287638	13.25104307	-26.56651442
0.71	0.17804693	79.75489558	-65.89000234	13.44153249	-26.42341166
0.72	0.17818851	79.37490776	-65.47877231	13.61179638	-26.26175179
0.73	0.17832464	78.97326383	-65.02699709	13.75919653	-26.07482416
0.74	0.17845797	78.55044556	-64.53468397	13.88324959	-25.86523937
0.75	0.17859305	78.10800334	-64.00184211	13.98332455	-25.6341303
0.76	0.17873803	77.647003	-63.43017623	14.059239	-25.38271087
0.77	0.1788943	77.16377347	-62.82239226	14.1125193	-25.11668226
0.78	0.17906356	76.6541036	-62.18218138	14.14517508	-24.84213951
0.79	0.17924424	76.11543169	-61.51413412	14.15976267	-24.5629633
0.8	0.17943037	75.54266358	-60.82284357	14.15947238	-24.28603312
0.81	0.1796169	74.93658018	-60.11292302	14.14678978	-24.01134535
0.82	0.17979543	74.29761558	-59.38829889	14.12403852	-23.74052468
0.83	0.17996283	73.62748741	-58.65218179	14.09279173	-23.47245858
0.84	0.18011621	72.92740492	-57.90805625	14.05500225	-23.2068761
0.85	0.18026111	72.20312465	-57.15730697	14.01020908	-22.9384158
0.86	0.18039496	71.46194816	-56.39858202	13.95750402	-22.66039225
0.87	0.18052602	70.69648478	-55.63516341	13.89881353	-22.38018591
0.88	0.1806572	69.91331475	-54.86560414	13.8328838	-22.09091536
0.89	0.18079664	69.11577536	-54.08823476	13.75827016	-21.78834117
0.9	0.18093797	68.29737311	-53.30455398	13.67725014	-21.47933153
0.91	0.18109237	67.46506161	-52.51065105	13.58659153	-21.15569208
0.92	0.18125209	66.61047826	-51.70836982	13.48932164	-20.82470475
0.93	0.18141954	65.7345989	-50.89569506	13.38423739	-20.48600524
0.94	0.18159896	64.84023337	-50.06974236	13.26955837	-20.13598749
0.95	0.18178068	63.92293225	-49.23176503	13.14754994	-19.77941672
0.96	0.18196815	62.98760548	-48.37947511	13.01639855	-19.41059233
0.97	0.18215597	62.03407343	-47.51205554	12.87647116	-19.03008703
0.98	0.18234405	61.06268351	-46.62802104	12.72708419	-18.63940835
0.99	0.18252936	60.07271344	-45.72642393	12.56829347	-18.23952126
1	0.18270908	59.06111907	-44.80547661	12.39969362	-17.83479689
1.01	0.18288779	58.03168565	-43.8656636	12.22115324	-17.42176538
1.02	0.18306044	56.97784618	-42.90531187	12.0325565	-17.00939477
1.03	0.18322879	55.90257813	-41.92528102	11.83413905	-16.59527964
1.04	0.18339191	54.80478986	-40.92695765	11.62692079	-16.18197209
1.05	0.18355209	53.68621889	-39.91158473	11.41144435	-15.76805151
1.06	0.18370952	52.54401418	-38.88123697	11.18915814	-15.3579502
1.07	0.1838639	51.38132143	-37.83695131	10.96050569	-14.94889973
1.08	0.18401782	50.19862528	-36.78083723	10.72648558	-14.54074628
1.09	0.18417078	48.9913257	-35.71598007	10.48904073	-14.14106432
1.1	0.18432359	47.76162156	-34.64449121	10.24892571	-13.74889814
1.11	0.18447337	46.51597933	-33.56769523	10.00632529	-13.35931864
1.12	0.18462041	45.25554713	-32.49067729	9.76373592	-12.97245809
1.13	0.18476475	43.98381645	-31.41377009	9.52076346	-12.58764792
1.14	0.18490431	42.70416183	-30.34063454	9.2790347	-12.20372833
1.15	0.18503234	41.42944058	-29.27347105	9.03928451	-11.80701366
1.16	0.18516095	40.15381701	-28.21304147	8.8010679	-11.40878706
1.17	0.18528613	38.88361177	-27.16133411	8.565331	-11.00335534
1.18	0.18541343	37.62344464	-26.11989385	8.33200398	-10.58927853
1.19	0.18553455	36.37031494	-25.09052797	8.10304008	-10.16995018
1.2	0.18566002	35.14134335	-24.07200883	7.87575277	-9.73003778
1.21	0.18578363	33.9284029	-23.07061945	7.65390279	-9.28326668
1.22	0.18591005	32.73708655	-22.08654609	7.43627264	-8.82934494
1.23	0.18603077	31.57673627	-21.11988486	7.22302548	-8.35700779
1.24	0.18614591	30.44623659	-20.17444527	7.0152775	-7.8750353
1.25	0.18624501	29.3525365	-19.25363938	6.81477503	-7.37785514
1.26	0.18633004	28.2922244	-18.35981168	6.62205624	-6.87570821
1.27	0.18640321	27.27273737	-17.49274836	6.43606045	-6.3617182
1.28	0.186459	26.28925266	-16.65423241	6.25821667	-5.84418302
1.29	0.18649959	25.34134811	-15.84494625	6.08880486	-5.32492574
1.3	0.18652743	24.42919543	-15.06608402	5.92805884	-4.80593839
1.31	0.18655382	23.55110597	-14.31747835	5.77517741	-4.29209272
1.32	0.18656561	22.70867604	-13.61216728	5.63725451	-3.78932079
1.33	0.18657402	21.90627362	-12.94456093	5.50992566	-3.29320516
1.34	0.18658419	21.1485361	-12.31726496	5.39341305	-2.80264038
1.35	0.18658794	20.43499871	-11.73464028	5.28988331	-2.32267194
1.36	0.18658813	19.77031143	-11.19476896	5.19784138	-1.84839755
1.37	0.18658299	19.148145	-10.69660649	5.11736042	-1.38612218
1.38	0.18657312	18.56798909	-10.23728177	5.04744244	-0.93326473
1.39	0.18655822	18.02345006	-9.81326574	4.98693368	-0.49477524
1.4	0.18653632	17.51189031	-9.42080988	4.93445937	-0.07055113
1.41	0.18650667	17.03080781	-9.05662329	4.88863211	0.33838093
1.42	0.18646759	16.57784885	-8.71719924	4.84784563	0.73143079
1.43	0.18641271	16.14929904	-8.39953217	4.81140904	1.10750454
1.44	0.18634462	15.76682442	-8.10303423	4.77735485	1.49163662
1.45	0.18625708	15.3601374	-7.815697	4.74465007	1.81044666
1.46	0.18615194	15.01332053	-7.54757571	4.71332606	2.15757058
1.47	0.18602201	14.64065416	-7.28336468	4.68148217	2.44282835
1.48	0.18586528	14.3243754	-7.03337686	4.64940351	2.75738866
1.49	0.18567889	13.9704763	-6.78131302	4.61480638	3.00094761
1.5	0.18546344	13.65085252	-6.53688553	4.57798841	3.25210917
1.51	0.18522003	13.33996055	-6.2952907	4.53840786	3.48547427
1.52	0.18495101	13.03827248	-6.05583814	4.49599703	3.70397045
1.53	0.18465869	12.74662974	-5.81803368	4.45086564	3.91129418
1.54	0.18434601	12.46390713	-5.58237854	4.40381538	4.10867131
1.55	0.18401459	12.19141163	-5.34840891	4.35498639	4.30038816
1.56	0.18366673	11.92960447	-5.11624717	4.30467339	4.48878659
1.57	0.18330515	11.67906665	-4.88668197	4.2533159	4.67554682
1.58	0.18294316	11.46595266	-4.6659366	4.20143504	4.88576013
1.59	0.18256785	11.21948922	-4.44497548	4.15018591	5.04497953
1.6	0.18220495	11.02963653	-4.24294402	4.10156187	5.24310389
1.61	0.18185827	10.84952541	-4.05583542	4.05661141	5.42775986
1.62	0.18153061	10.68257224	-3.89156829	4.01898395	5.59790157
1.63	0.18123315	10.53280637	-3.75129522	3.98852292	5.75573284
1.64	0.18097208	10.4026553	-3.63867999	3.96662589	5.90108283
1.65	0.18075467	10.29306324	-3.55387837	3.95295949	6.03347583
